<?xml version="1.0" encoding="UTF-8" standalone="no"?><!DOCTYPE svg PUBLIC "-//W3C//DTD SVG 1.1//EN" "http://www.w3.org/Graphics/SVG/1.1/DTD/svg11.dtd"><!-- Generated by graphviz version 2.40.1 (20161225.0304)
 --><!-- Title: Tree Pages: 1 --><svg xmlns="http://www.w3.org/2000/svg" xmlns:xlink="http://www.w3.org/1999/xlink" width="2138pt" height="622pt" viewBox="0.00 0.00 2138.32 622.40">
<g id="graph0" class="graph" transform="scale(1 1) rotate(0) translate(4 618.4)">
<title>Tree</title>
<polygon fill="#ffffff" stroke="transparent" points="-4,4 -4,-618.4 2134.3204,-618.4 2134.3204,4 -4,4"/>
<!-- 0 -->
<g id="node1" class="node">
<title>0</title>
<polygon fill="none" stroke="#000000" points="1206.8288,-614.5003 1079.4916,-614.5003 1079.4916,-539.0997 1206.8288,-539.0997 1206.8288,-614.5003"/>
<text text-anchor="middle" x="1143.1602" y="-597.8" font-family="Helvetica,sans-Serif" font-size="14.00" fill="#000000">Age &lt;= 28.5</text>
<text text-anchor="middle" x="1143.1602" y="-581" font-family="Helvetica,sans-Serif" font-size="14.00" fill="#000000">gini = 0.453</text>
<text text-anchor="middle" x="1143.1602" y="-564.2" font-family="Helvetica,sans-Serif" font-size="14.00" fill="#000000">samples = 614</text>
<text text-anchor="middle" x="1143.1602" y="-547.4" font-family="Helvetica,sans-Serif" font-size="14.00" fill="#000000">value = [401, 213]</text>
</g>
<!-- 1 -->
<g id="node2" class="node">
<title>1</title>
<polygon fill="none" stroke="#000000" points="1048.6576,-503.3003 921.6628,-503.3003 921.6628,-427.8997 1048.6576,-427.8997 1048.6576,-503.3003"/>
<text text-anchor="middle" x="985.1602" y="-486.6" font-family="Helvetica,sans-Serif" font-size="14.00" fill="#000000">Glucose &lt;= 127.5</text>
<text text-anchor="middle" x="985.1602" y="-469.8" font-family="Helvetica,sans-Serif" font-size="14.00" fill="#000000">gini = 0.304</text>
<text text-anchor="middle" x="985.1602" y="-453" font-family="Helvetica,sans-Serif" font-size="14.00" fill="#000000">samples = 300</text>
<text text-anchor="middle" x="985.1602" y="-436.2" font-family="Helvetica,sans-Serif" font-size="14.00" fill="#000000">value = [244, 56]</text>
</g>
<!-- 0&#45;&gt;1 -->
<g id="edge1" class="edge">
<title>0-&gt;1</title>
<path fill="none" stroke="#000000" d="M1089.6686,-539.1528C1075.8985,-529.4614 1060.9701,-518.9548 1046.822,-508.9974"/>
<polygon fill="#000000" stroke="#000000" points="1048.7888,-506.1018 1038.5967,-503.2085 1044.76,-511.8262 1048.7888,-506.1018"/>
<text text-anchor="middle" x="1042.8787" y="-523.639" font-family="Helvetica,sans-Serif" font-size="14.00" fill="#000000">True</text>
</g>
<!-- 22 -->
<g id="node23" class="node">
<title>22</title>
<polygon fill="none" stroke="#000000" points="1479.8288,-503.3003 1352.4916,-503.3003 1352.4916,-427.8997 1479.8288,-427.8997 1479.8288,-503.3003"/>
<text text-anchor="middle" x="1416.1602" y="-486.6" font-family="Helvetica,sans-Serif" font-size="14.00" fill="#000000">Glucose &lt;= 155.5</text>
<text text-anchor="middle" x="1416.1602" y="-469.8" font-family="Helvetica,sans-Serif" font-size="14.00" fill="#000000">gini = 0.5</text>
<text text-anchor="middle" x="1416.1602" y="-453" font-family="Helvetica,sans-Serif" font-size="14.00" fill="#000000">samples = 314</text>
<text text-anchor="middle" x="1416.1602" y="-436.2" font-family="Helvetica,sans-Serif" font-size="14.00" fill="#000000">value = [157, 157]</text>
</g>
<!-- 0&#45;&gt;22 -->
<g id="edge22" class="edge">
<title>0-&gt;22</title>
<path fill="none" stroke="#000000" d="M1207.1666,-550.7285C1247.752,-534.1971 1300.3825,-512.7592 1342.674,-495.5328"/>
<polygon fill="#000000" stroke="#000000" points="1344.1416,-498.7143 1352.0824,-491.7005 1341.5009,-492.2315 1344.1416,-498.7143"/>
<text text-anchor="middle" x="1342.3794" y="-510.5408" font-family="Helvetica,sans-Serif" font-size="14.00" fill="#000000">False</text>
</g>
<!-- 2 -->
<g id="node3" class="node">
<title>2</title>
<polygon fill="none" stroke="#000000" points="581.0459,-392.1003 461.2745,-392.1003 461.2745,-316.6997 581.0459,-316.6997 581.0459,-392.1003"/>
<text text-anchor="middle" x="521.1602" y="-375.4" font-family="Helvetica,sans-Serif" font-size="14.00" fill="#000000">BMI &lt;= 30.95</text>
<text text-anchor="middle" x="521.1602" y="-358.6" font-family="Helvetica,sans-Serif" font-size="14.00" fill="#000000">gini = 0.142</text>
<text text-anchor="middle" x="521.1602" y="-341.8" font-family="Helvetica,sans-Serif" font-size="14.00" fill="#000000">samples = 221</text>
<text text-anchor="middle" x="521.1602" y="-325" font-family="Helvetica,sans-Serif" font-size="14.00" fill="#000000">value = [204, 17]</text>
</g>
<!-- 1&#45;&gt;2 -->
<g id="edge2" class="edge">
<title>1-&gt;2</title>
<path fill="none" stroke="#000000" d="M921.6159,-450.3713C835.1339,-429.6454 680.8948,-392.6812 591.175,-371.1794"/>
<polygon fill="#000000" stroke="#000000" points="591.9043,-367.7551 581.3639,-368.8281 590.2728,-374.5624 591.9043,-367.7551"/>
</g>
<!-- 13 -->
<g id="node14" class="node">
<title>13</title>
<polygon fill="none" stroke="#000000" points="1048.6576,-392.1003 921.6628,-392.1003 921.6628,-316.6997 1048.6576,-316.6997 1048.6576,-392.1003"/>
<text text-anchor="middle" x="985.1602" y="-375.4" font-family="Helvetica,sans-Serif" font-size="14.00" fill="#000000">Glucose &lt;= 165.5</text>
<text text-anchor="middle" x="985.1602" y="-358.6" font-family="Helvetica,sans-Serif" font-size="14.00" fill="#000000">gini = 0.5</text>
<text text-anchor="middle" x="985.1602" y="-341.8" font-family="Helvetica,sans-Serif" font-size="14.00" fill="#000000">samples = 79</text>
<text text-anchor="middle" x="985.1602" y="-325" font-family="Helvetica,sans-Serif" font-size="14.00" fill="#000000">value = [40, 39]</text>
</g>
<!-- 1&#45;&gt;13 -->
<g id="edge13" class="edge">
<title>1-&gt;13</title>
<path fill="none" stroke="#000000" d="M985.1602,-427.9528C985.1602,-419.62 985.1602,-410.6845 985.1602,-402.0137"/>
<polygon fill="#000000" stroke="#000000" points="988.6603,-402.0084 985.1602,-392.0085 981.6603,-402.0085 988.6603,-402.0084"/>
</g>
<!-- 3 -->
<g id="node4" class="node">
<title>3</title>
<polygon fill="none" stroke="#000000" points="311.0463,-280.9003 173.2741,-280.9003 173.2741,-205.4997 311.0463,-205.4997 311.0463,-280.9003"/>
<text text-anchor="middle" x="242.1602" y="-264.2" font-family="Helvetica,sans-Serif" font-size="14.00" fill="#000000">Pregnancies &lt;= 2.5</text>
<text text-anchor="middle" x="242.1602" y="-247.4" font-family="Helvetica,sans-Serif" font-size="14.00" fill="#000000">gini = 0.016</text>
<text text-anchor="middle" x="242.1602" y="-230.6" font-family="Helvetica,sans-Serif" font-size="14.00" fill="#000000">samples = 124</text>
<text text-anchor="middle" x="242.1602" y="-213.8" font-family="Helvetica,sans-Serif" font-size="14.00" fill="#000000">value = [123, 1]</text>
</g>
<!-- 2&#45;&gt;3 -->
<g id="edge3" class="edge">
<title>2-&gt;3</title>
<path fill="none" stroke="#000000" d="M460.9648,-330.4082C419.8374,-314.0161 364.9389,-292.1354 320.4213,-274.3923"/>
<polygon fill="#000000" stroke="#000000" points="321.6733,-271.1235 311.088,-270.6723 319.0815,-277.6261 321.6733,-271.1235"/>
</g>
<!-- 8 -->
<g id="node9" class="node">
<title>8</title>
<polygon fill="none" stroke="#000000" points="600.8257,-280.9003 441.4947,-280.9003 441.4947,-205.4997 600.8257,-205.4997 600.8257,-280.9003"/>
<text text-anchor="middle" x="521.1602" y="-264.2" font-family="Helvetica,sans-Serif" font-size="14.00" fill="#000000">BloodPressure &lt;= 53.0</text>
<text text-anchor="middle" x="521.1602" y="-247.4" font-family="Helvetica,sans-Serif" font-size="14.00" fill="#000000">gini = 0.275</text>
<text text-anchor="middle" x="521.1602" y="-230.6" font-family="Helvetica,sans-Serif" font-size="14.00" fill="#000000">samples = 97</text>
<text text-anchor="middle" x="521.1602" y="-213.8" font-family="Helvetica,sans-Serif" font-size="14.00" fill="#000000">value = [81, 16]</text>
</g>
<!-- 2&#45;&gt;8 -->
<g id="edge8" class="edge">
<title>2-&gt;8</title>
<path fill="none" stroke="#000000" d="M521.1602,-316.7528C521.1602,-308.42 521.1602,-299.4845 521.1602,-290.8137"/>
<polygon fill="#000000" stroke="#000000" points="524.6603,-290.8084 521.1602,-280.8085 517.6603,-290.8085 524.6603,-290.8084"/>
</g>
<!-- 4 -->
<g id="node5" class="node">
<title>4</title>
<polygon fill="none" stroke="#000000" points="104.4811,-161.4014 -.1607,-161.4014 -.1607,-102.5986 104.4811,-102.5986 104.4811,-161.4014"/>
<text text-anchor="middle" x="52.1602" y="-144.6" font-family="Helvetica,sans-Serif" font-size="14.00" fill="#000000">gini = 0.0</text>
<text text-anchor="middle" x="52.1602" y="-127.8" font-family="Helvetica,sans-Serif" font-size="14.00" fill="#000000">samples = 96</text>
<text text-anchor="middle" x="52.1602" y="-111" font-family="Helvetica,sans-Serif" font-size="14.00" fill="#000000">value = [96, 0]</text>
</g>
<!-- 3&#45;&gt;4 -->
<g id="edge4" class="edge">
<title>3-&gt;4</title>
<path fill="none" stroke="#000000" d="M174.9571,-205.4292C154.9876,-194.0518 133.1186,-181.4401 113.1602,-169.6 111.475,-168.6003 109.7663,-167.5813 108.0434,-166.5491"/>
<polygon fill="#000000" stroke="#000000" points="109.7233,-163.4751 99.3526,-161.3072 106.1079,-169.4692 109.7233,-163.4751"/>
</g>
<!-- 5 -->
<g id="node6" class="node">
<title>5</title>
<polygon fill="none" stroke="#000000" points="362.2428,-169.7003 122.0776,-169.7003 122.0776,-94.2997 362.2428,-94.2997 362.2428,-169.7003"/>
<text text-anchor="middle" x="242.1602" y="-153" font-family="Helvetica,sans-Serif" font-size="14.00" fill="#000000">DiabetesPedigreeFunction &lt;= 0.437</text>
<text text-anchor="middle" x="242.1602" y="-136.2" font-family="Helvetica,sans-Serif" font-size="14.00" fill="#000000">gini = 0.069</text>
<text text-anchor="middle" x="242.1602" y="-119.4" font-family="Helvetica,sans-Serif" font-size="14.00" fill="#000000">samples = 28</text>
<text text-anchor="middle" x="242.1602" y="-102.6" font-family="Helvetica,sans-Serif" font-size="14.00" fill="#000000">value = [27, 1]</text>
</g>
<!-- 3&#45;&gt;5 -->
<g id="edge5" class="edge">
<title>3-&gt;5</title>
<path fill="none" stroke="#000000" d="M242.1602,-205.5528C242.1602,-197.22 242.1602,-188.2845 242.1602,-179.6137"/>
<polygon fill="#000000" stroke="#000000" points="245.6603,-179.6084 242.1602,-169.6085 238.6603,-179.6085 245.6603,-179.6084"/>
</g>
<!-- 6 -->
<g id="node7" class="node">
<title>6</title>
<polygon fill="none" stroke="#000000" points="235.4811,-58.6014 130.8393,-58.6014 130.8393,.2014 235.4811,.2014 235.4811,-58.6014"/>
<text text-anchor="middle" x="183.1602" y="-41.8" font-family="Helvetica,sans-Serif" font-size="14.00" fill="#000000">gini = 0.0</text>
<text text-anchor="middle" x="183.1602" y="-25" font-family="Helvetica,sans-Serif" font-size="14.00" fill="#000000">samples = 24</text>
<text text-anchor="middle" x="183.1602" y="-8.2" font-family="Helvetica,sans-Serif" font-size="14.00" fill="#000000">value = [24, 0]</text>
</g>
<!-- 5&#45;&gt;6 -->
<g id="edge6" class="edge">
<title>5-&gt;6</title>
<path fill="none" stroke="#000000" d="M220.5258,-94.3048C215.4976,-85.5437 210.1404,-76.2096 205.0992,-67.4259"/>
<polygon fill="#000000" stroke="#000000" points="208.0004,-65.4495 199.987,-58.5186 201.9292,-68.9339 208.0004,-65.4495"/>
</g>
<!-- 7 -->
<g id="node8" class="node">
<title>7</title>
<polygon fill="none" stroke="#000000" points="349.1991,-58.6014 253.1213,-58.6014 253.1213,.2014 349.1991,.2014 349.1991,-58.6014"/>
<text text-anchor="middle" x="301.1602" y="-41.8" font-family="Helvetica,sans-Serif" font-size="14.00" fill="#000000">gini = 0.375</text>
<text text-anchor="middle" x="301.1602" y="-25" font-family="Helvetica,sans-Serif" font-size="14.00" fill="#000000">samples = 4</text>
<text text-anchor="middle" x="301.1602" y="-8.2" font-family="Helvetica,sans-Serif" font-size="14.00" fill="#000000">value = [3, 1]</text>
</g>
<!-- 5&#45;&gt;7 -->
<g id="edge7" class="edge">
<title>5-&gt;7</title>
<path fill="none" stroke="#000000" d="M263.7946,-94.3048C268.8228,-85.5437 274.18,-76.2096 279.2212,-67.4259"/>
<polygon fill="#000000" stroke="#000000" points="282.3912,-68.9339 284.3334,-58.5186 276.32,-65.4495 282.3912,-68.9339"/>
</g>
<!-- 9 -->
<g id="node10" class="node">
<title>9</title>
<polygon fill="none" stroke="#000000" points="476.1991,-161.4014 380.1213,-161.4014 380.1213,-102.5986 476.1991,-102.5986 476.1991,-161.4014"/>
<text text-anchor="middle" x="428.1602" y="-144.6" font-family="Helvetica,sans-Serif" font-size="14.00" fill="#000000">gini = 0.494</text>
<text text-anchor="middle" x="428.1602" y="-127.8" font-family="Helvetica,sans-Serif" font-size="14.00" fill="#000000">samples = 9</text>
<text text-anchor="middle" x="428.1602" y="-111" font-family="Helvetica,sans-Serif" font-size="14.00" fill="#000000">value = [5, 4]</text>
</g>
<!-- 8&#45;&gt;9 -->
<g id="edge9" class="edge">
<title>8-&gt;9</title>
<path fill="none" stroke="#000000" d="M489.6746,-205.5528C479.9128,-193.8806 469.1621,-181.0259 459.4159,-169.3724"/>
<polygon fill="#000000" stroke="#000000" points="461.9538,-166.9513 452.8536,-161.5258 456.5842,-171.4422 461.9538,-166.9513"/>
</g>
<!-- 10 -->
<g id="node11" class="node">
<title>10</title>
<polygon fill="none" stroke="#000000" points="734.2428,-169.7003 494.0776,-169.7003 494.0776,-94.2997 734.2428,-94.2997 734.2428,-169.7003"/>
<text text-anchor="middle" x="614.1602" y="-153" font-family="Helvetica,sans-Serif" font-size="14.00" fill="#000000">DiabetesPedigreeFunction &lt;= 0.501</text>
<text text-anchor="middle" x="614.1602" y="-136.2" font-family="Helvetica,sans-Serif" font-size="14.00" fill="#000000">gini = 0.236</text>
<text text-anchor="middle" x="614.1602" y="-119.4" font-family="Helvetica,sans-Serif" font-size="14.00" fill="#000000">samples = 88</text>
<text text-anchor="middle" x="614.1602" y="-102.6" font-family="Helvetica,sans-Serif" font-size="14.00" fill="#000000">value = [76, 12]</text>
</g>
<!-- 8&#45;&gt;10 -->
<g id="edge10" class="edge">
<title>8-&gt;10</title>
<path fill="none" stroke="#000000" d="M552.6458,-205.5528C560.2207,-196.4954 568.3912,-186.726 576.2256,-177.3584"/>
<polygon fill="#000000" stroke="#000000" points="578.9764,-179.5248 582.7071,-169.6085 573.6068,-175.034 578.9764,-179.5248"/>
</g>
<!-- 11 -->
<g id="node12" class="node">
<title>11</title>
<polygon fill="none" stroke="#000000" points="544.4811,-58.6014 439.8393,-58.6014 439.8393,.2014 544.4811,.2014 544.4811,-58.6014"/>
<text text-anchor="middle" x="492.1602" y="-41.8" font-family="Helvetica,sans-Serif" font-size="14.00" fill="#000000">gini = 0.101</text>
<text text-anchor="middle" x="492.1602" y="-25" font-family="Helvetica,sans-Serif" font-size="14.00" fill="#000000">samples = 56</text>
<text text-anchor="middle" x="492.1602" y="-8.2" font-family="Helvetica,sans-Serif" font-size="14.00" fill="#000000">value = [53, 3]</text>
</g>
<!-- 10&#45;&gt;11 -->
<g id="edge11" class="edge">
<title>10-&gt;11</title>
<path fill="none" stroke="#000000" d="M569.4247,-94.3048C558.1517,-84.806 546.0793,-74.6335 534.9067,-65.2192"/>
<polygon fill="#000000" stroke="#000000" points="536.8572,-62.2858 526.9547,-58.5186 532.3466,-67.6389 536.8572,-62.2858"/>
</g>
<!-- 12 -->
<g id="node13" class="node">
<title>12</title>
<polygon fill="none" stroke="#000000" points="666.4811,-58.6014 561.8393,-58.6014 561.8393,.2014 666.4811,.2014 666.4811,-58.6014"/>
<text text-anchor="middle" x="614.1602" y="-41.8" font-family="Helvetica,sans-Serif" font-size="14.00" fill="#000000">gini = 0.404</text>
<text text-anchor="middle" x="614.1602" y="-25" font-family="Helvetica,sans-Serif" font-size="14.00" fill="#000000">samples = 32</text>
<text text-anchor="middle" x="614.1602" y="-8.2" font-family="Helvetica,sans-Serif" font-size="14.00" fill="#000000">value = [23, 9]</text>
</g>
<!-- 10&#45;&gt;12 -->
<g id="edge12" class="edge">
<title>10-&gt;12</title>
<path fill="none" stroke="#000000" d="M614.1602,-94.3048C614.1602,-85.9126 614.1602,-76.9946 614.1602,-68.5382"/>
<polygon fill="#000000" stroke="#000000" points="617.6603,-68.5186 614.1602,-58.5186 610.6603,-68.5187 617.6603,-68.5186"/>
</g>
<!-- 14 -->
<g id="node15" class="node">
<title>14</title>
<polygon fill="none" stroke="#000000" points="978.2632,-280.9003 866.0572,-280.9003 866.0572,-205.4997 978.2632,-205.4997 978.2632,-280.9003"/>
<text text-anchor="middle" x="922.1602" y="-264.2" font-family="Helvetica,sans-Serif" font-size="14.00" fill="#000000">BMI &lt;= 29.95</text>
<text text-anchor="middle" x="922.1602" y="-247.4" font-family="Helvetica,sans-Serif" font-size="14.00" fill="#000000">gini = 0.475</text>
<text text-anchor="middle" x="922.1602" y="-230.6" font-family="Helvetica,sans-Serif" font-size="14.00" fill="#000000">samples = 62</text>
<text text-anchor="middle" x="922.1602" y="-213.8" font-family="Helvetica,sans-Serif" font-size="14.00" fill="#000000">value = [38, 24]</text>
</g>
<!-- 13&#45;&gt;14 -->
<g id="edge14" class="edge">
<title>13-&gt;14</title>
<path fill="none" stroke="#000000" d="M963.8313,-316.7528C958.9051,-308.0577 953.6072,-298.7064 948.4957,-289.6843"/>
<polygon fill="#000000" stroke="#000000" points="951.4418,-287.7839 943.4672,-280.8085 945.3513,-291.2344 951.4418,-287.7839"/>
</g>
<!-- 21 -->
<g id="node22" class="node">
<title>21</title>
<polygon fill="none" stroke="#000000" points="1100.4811,-272.6014 995.8393,-272.6014 995.8393,-213.7986 1100.4811,-213.7986 1100.4811,-272.6014"/>
<text text-anchor="middle" x="1048.1602" y="-255.8" font-family="Helvetica,sans-Serif" font-size="14.00" fill="#000000">gini = 0.208</text>
<text text-anchor="middle" x="1048.1602" y="-239" font-family="Helvetica,sans-Serif" font-size="14.00" fill="#000000">samples = 17</text>
<text text-anchor="middle" x="1048.1602" y="-222.2" font-family="Helvetica,sans-Serif" font-size="14.00" fill="#000000">value = [2, 15]</text>
</g>
<!-- 13&#45;&gt;21 -->
<g id="edge21" class="edge">
<title>13-&gt;21</title>
<path fill="none" stroke="#000000" d="M1006.4891,-316.7528C1012.9112,-305.4173 1019.9651,-292.9665 1026.414,-281.5838"/>
<polygon fill="#000000" stroke="#000000" points="1029.5483,-283.1518 1031.4324,-272.7258 1023.4578,-279.7012 1029.5483,-283.1518"/>
</g>
<!-- 15 -->
<g id="node16" class="node">
<title>15</title>
<polygon fill="none" stroke="#000000" points="908.0463,-169.7003 770.2741,-169.7003 770.2741,-94.2997 908.0463,-94.2997 908.0463,-169.7003"/>
<text text-anchor="middle" x="839.1602" y="-153" font-family="Helvetica,sans-Serif" font-size="14.00" fill="#000000">Pregnancies &lt;= 1.5</text>
<text text-anchor="middle" x="839.1602" y="-136.2" font-family="Helvetica,sans-Serif" font-size="14.00" fill="#000000">gini = 0.308</text>
<text text-anchor="middle" x="839.1602" y="-119.4" font-family="Helvetica,sans-Serif" font-size="14.00" fill="#000000">samples = 21</text>
<text text-anchor="middle" x="839.1602" y="-102.6" font-family="Helvetica,sans-Serif" font-size="14.00" fill="#000000">value = [17, 4]</text>
</g>
<!-- 14&#45;&gt;15 -->
<g id="edge15" class="edge">
<title>14-&gt;15</title>
<path fill="none" stroke="#000000" d="M894.0602,-205.5528C887.3673,-196.586 880.1536,-186.9213 873.2257,-177.6395"/>
<polygon fill="#000000" stroke="#000000" points="876.0177,-175.5288 867.2313,-169.6085 870.408,-179.7159 876.0177,-175.5288"/>
</g>
<!-- 18 -->
<g id="node19" class="node">
<title>18</title>
<polygon fill="none" stroke="#000000" points="1084.8257,-169.7003 925.4947,-169.7003 925.4947,-94.2997 1084.8257,-94.2997 1084.8257,-169.7003"/>
<text text-anchor="middle" x="1005.1602" y="-153" font-family="Helvetica,sans-Serif" font-size="14.00" fill="#000000">BloodPressure &lt;= 61.0</text>
<text text-anchor="middle" x="1005.1602" y="-136.2" font-family="Helvetica,sans-Serif" font-size="14.00" fill="#000000">gini = 0.5</text>
<text text-anchor="middle" x="1005.1602" y="-119.4" font-family="Helvetica,sans-Serif" font-size="14.00" fill="#000000">samples = 41</text>
<text text-anchor="middle" x="1005.1602" y="-102.6" font-family="Helvetica,sans-Serif" font-size="14.00" fill="#000000">value = [21, 20]</text>
</g>
<!-- 14&#45;&gt;18 -->
<g id="edge18" class="edge">
<title>14-&gt;18</title>
<path fill="none" stroke="#000000" d="M950.2602,-205.5528C956.9531,-196.586 964.1668,-186.9213 971.0947,-177.6395"/>
<polygon fill="#000000" stroke="#000000" points="973.9124,-179.7159 977.0891,-169.6085 968.3027,-175.5288 973.9124,-179.7159"/>
</g>
<!-- 16 -->
<g id="node17" class="node">
<title>16</title>
<polygon fill="none" stroke="#000000" points="788.4811,-58.6014 683.8393,-58.6014 683.8393,.2014 788.4811,.2014 788.4811,-58.6014"/>
<text text-anchor="middle" x="736.1602" y="-41.8" font-family="Helvetica,sans-Serif" font-size="14.00" fill="#000000">gini = 0.0</text>
<text text-anchor="middle" x="736.1602" y="-25" font-family="Helvetica,sans-Serif" font-size="14.00" fill="#000000">samples = 10</text>
<text text-anchor="middle" x="736.1602" y="-8.2" font-family="Helvetica,sans-Serif" font-size="14.00" fill="#000000">value = [10, 0]</text>
</g>
<!-- 15&#45;&gt;16 -->
<g id="edge16" class="edge">
<title>15-&gt;16</title>
<path fill="none" stroke="#000000" d="M801.3917,-94.3048C792.0591,-84.9904 782.0776,-75.0283 772.7998,-65.7684"/>
<polygon fill="#000000" stroke="#000000" points="775.0863,-63.1056 765.5359,-58.5186 770.1414,-68.0601 775.0863,-63.1056"/>
</g>
<!-- 17 -->
<g id="node18" class="node">
<title>17</title>
<polygon fill="none" stroke="#000000" points="905.7969,-58.6014 806.5235,-58.6014 806.5235,.2014 905.7969,.2014 905.7969,-58.6014"/>
<text text-anchor="middle" x="856.1602" y="-41.8" font-family="Helvetica,sans-Serif" font-size="14.00" fill="#000000">gini = 0.463</text>
<text text-anchor="middle" x="856.1602" y="-25" font-family="Helvetica,sans-Serif" font-size="14.00" fill="#000000">samples = 11</text>
<text text-anchor="middle" x="856.1602" y="-8.2" font-family="Helvetica,sans-Serif" font-size="14.00" fill="#000000">value = [7, 4]</text>
</g>
<!-- 15&#45;&gt;17 -->
<g id="edge17" class="edge">
<title>15-&gt;17</title>
<path fill="none" stroke="#000000" d="M845.3938,-94.3048C846.7817,-85.9126 848.2564,-76.9946 849.6549,-68.5382"/>
<polygon fill="#000000" stroke="#000000" points="853.1333,-68.9557 851.3118,-58.5186 846.2271,-67.8136 853.1333,-68.9557"/>
</g>
<!-- 19 -->
<g id="node20" class="node">
<title>19</title>
<polygon fill="none" stroke="#000000" points="1020.1991,-58.6014 924.1213,-58.6014 924.1213,.2014 1020.1991,.2014 1020.1991,-58.6014"/>
<text text-anchor="middle" x="972.1602" y="-41.8" font-family="Helvetica,sans-Serif" font-size="14.00" fill="#000000">gini = 0.0</text>
<text text-anchor="middle" x="972.1602" y="-25" font-family="Helvetica,sans-Serif" font-size="14.00" fill="#000000">samples = 7</text>
<text text-anchor="middle" x="972.1602" y="-8.2" font-family="Helvetica,sans-Serif" font-size="14.00" fill="#000000">value = [0, 7]</text>
</g>
<!-- 18&#45;&gt;19 -->
<g id="edge19" class="edge">
<title>18-&gt;19</title>
<path fill="none" stroke="#000000" d="M993.0596,-94.3048C990.336,-85.8204 987.4399,-76.7985 984.6988,-68.2596"/>
<polygon fill="#000000" stroke="#000000" points="987.9609,-66.9703 981.5718,-58.5186 981.2959,-69.1099 987.9609,-66.9703"/>
</g>
<!-- 20 -->
<g id="node21" class="node">
<title>20</title>
<polygon fill="none" stroke="#000000" points="1150.2632,-58.6014 1038.0572,-58.6014 1038.0572,.2014 1150.2632,.2014 1150.2632,-58.6014"/>
<text text-anchor="middle" x="1094.1602" y="-41.8" font-family="Helvetica,sans-Serif" font-size="14.00" fill="#000000">gini = 0.472</text>
<text text-anchor="middle" x="1094.1602" y="-25" font-family="Helvetica,sans-Serif" font-size="14.00" fill="#000000">samples = 34</text>
<text text-anchor="middle" x="1094.1602" y="-8.2" font-family="Helvetica,sans-Serif" font-size="14.00" fill="#000000">value = [21, 13]</text>
</g>
<!-- 18&#45;&gt;20 -->
<g id="edge20" class="edge">
<title>18-&gt;20</title>
<path fill="none" stroke="#000000" d="M1037.7951,-94.3048C1045.6995,-85.1748 1054.1426,-75.4225 1062.0238,-66.3193"/>
<polygon fill="#000000" stroke="#000000" points="1064.878,-68.3698 1068.7773,-58.5186 1059.5858,-63.788 1064.878,-68.3698"/>
</g>
<!-- 23 -->
<g id="node24" class="node">
<title>23</title>
<polygon fill="none" stroke="#000000" points="1479.8288,-392.1003 1352.4916,-392.1003 1352.4916,-316.6997 1479.8288,-316.6997 1479.8288,-392.1003"/>
<text text-anchor="middle" x="1416.1602" y="-375.4" font-family="Helvetica,sans-Serif" font-size="14.00" fill="#000000">Glucose &lt;= 94.5</text>
<text text-anchor="middle" x="1416.1602" y="-358.6" font-family="Helvetica,sans-Serif" font-size="14.00" fill="#000000">gini = 0.483</text>
<text text-anchor="middle" x="1416.1602" y="-341.8" font-family="Helvetica,sans-Serif" font-size="14.00" fill="#000000">samples = 246</text>
<text text-anchor="middle" x="1416.1602" y="-325" font-family="Helvetica,sans-Serif" font-size="14.00" fill="#000000">value = [146, 100]</text>
</g>
<!-- 22&#45;&gt;23 -->
<g id="edge23" class="edge">
<title>22-&gt;23</title>
<path fill="none" stroke="#000000" d="M1416.1602,-427.9528C1416.1602,-419.62 1416.1602,-410.6845 1416.1602,-402.0137"/>
<polygon fill="#000000" stroke="#000000" points="1419.6603,-402.0084 1416.1602,-392.0085 1412.6603,-402.0085 1419.6603,-402.0084"/>
</g>
<!-- 36 -->
<g id="node37" class="node">
<title>36</title>
<polygon fill="none" stroke="#000000" points="1782.2632,-392.1003 1670.0572,-392.1003 1670.0572,-316.6997 1782.2632,-316.6997 1782.2632,-392.1003"/>
<text text-anchor="middle" x="1726.1602" y="-375.4" font-family="Helvetica,sans-Serif" font-size="14.00" fill="#000000">BMI &lt;= 28.7</text>
<text text-anchor="middle" x="1726.1602" y="-358.6" font-family="Helvetica,sans-Serif" font-size="14.00" fill="#000000">gini = 0.271</text>
<text text-anchor="middle" x="1726.1602" y="-341.8" font-family="Helvetica,sans-Serif" font-size="14.00" fill="#000000">samples = 68</text>
<text text-anchor="middle" x="1726.1602" y="-325" font-family="Helvetica,sans-Serif" font-size="14.00" fill="#000000">value = [11, 57]</text>
</g>
<!-- 22&#45;&gt;36 -->
<g id="edge36" class="edge">
<title>22-&gt;36</title>
<path fill="none" stroke="#000000" d="M1480.0165,-442.6941C1532.6601,-423.8104 1607.0588,-397.1228 1660.2563,-378.0404"/>
<polygon fill="#000000" stroke="#000000" points="1661.7018,-381.2403 1669.9328,-374.5693 1659.3382,-374.6514 1661.7018,-381.2403"/>
</g>
<!-- 24 -->
<g id="node25" class="node">
<title>24</title>
<polygon fill="none" stroke="#000000" points="1397.3743,-280.9003 1278.9461,-280.9003 1278.9461,-205.4997 1397.3743,-205.4997 1397.3743,-280.9003"/>
<text text-anchor="middle" x="1338.1602" y="-264.2" font-family="Helvetica,sans-Serif" font-size="14.00" fill="#000000">Glucose &lt;= 59.0</text>
<text text-anchor="middle" x="1338.1602" y="-247.4" font-family="Helvetica,sans-Serif" font-size="14.00" fill="#000000">gini = 0.176</text>
<text text-anchor="middle" x="1338.1602" y="-230.6" font-family="Helvetica,sans-Serif" font-size="14.00" fill="#000000">samples = 41</text>
<text text-anchor="middle" x="1338.1602" y="-213.8" font-family="Helvetica,sans-Serif" font-size="14.00" fill="#000000">value = [37, 4]</text>
</g>
<!-- 23&#45;&gt;24 -->
<g id="edge24" class="edge">
<title>23-&gt;24</title>
<path fill="none" stroke="#000000" d="M1389.753,-316.7528C1383.5268,-307.8765 1376.821,-298.3165 1370.3709,-289.1209"/>
<polygon fill="#000000" stroke="#000000" points="1373.1482,-286.9854 1364.5402,-280.8085 1367.4174,-291.0052 1373.1482,-286.9854"/>
</g>
<!-- 29 -->
<g id="node30" class="node">
<title>29</title>
<polygon fill="none" stroke="#000000" points="1554.0459,-280.9003 1434.2745,-280.9003 1434.2745,-205.4997 1554.0459,-205.4997 1554.0459,-280.9003"/>
<text text-anchor="middle" x="1494.1602" y="-264.2" font-family="Helvetica,sans-Serif" font-size="14.00" fill="#000000">BMI &lt;= 26.35</text>
<text text-anchor="middle" x="1494.1602" y="-247.4" font-family="Helvetica,sans-Serif" font-size="14.00" fill="#000000">gini = 0.498</text>
<text text-anchor="middle" x="1494.1602" y="-230.6" font-family="Helvetica,sans-Serif" font-size="14.00" fill="#000000">samples = 205</text>
<text text-anchor="middle" x="1494.1602" y="-213.8" font-family="Helvetica,sans-Serif" font-size="14.00" fill="#000000">value = [109, 96]</text>
</g>
<!-- 23&#45;&gt;29 -->
<g id="edge29" class="edge">
<title>23-&gt;29</title>
<path fill="none" stroke="#000000" d="M1442.5674,-316.7528C1448.7936,-307.8765 1455.4994,-298.3165 1461.9495,-289.1209"/>
<polygon fill="#000000" stroke="#000000" points="1464.903,-291.0052 1467.7802,-280.8085 1459.1722,-286.9854 1464.903,-291.0052"/>
</g>
<!-- 25 -->
<g id="node26" class="node">
<title>25</title>
<polygon fill="none" stroke="#000000" points="1251.1991,-161.4014 1155.1213,-161.4014 1155.1213,-102.5986 1251.1991,-102.5986 1251.1991,-161.4014"/>
<text text-anchor="middle" x="1203.1602" y="-144.6" font-family="Helvetica,sans-Serif" font-size="14.00" fill="#000000">gini = 0.48</text>
<text text-anchor="middle" x="1203.1602" y="-127.8" font-family="Helvetica,sans-Serif" font-size="14.00" fill="#000000">samples = 5</text>
<text text-anchor="middle" x="1203.1602" y="-111" font-family="Helvetica,sans-Serif" font-size="14.00" fill="#000000">value = [3, 2]</text>
</g>
<!-- 24&#45;&gt;25 -->
<g id="edge25" class="edge">
<title>24-&gt;25</title>
<path fill="none" stroke="#000000" d="M1292.4554,-205.5528C1277.74,-193.4316 1261.4764,-180.0353 1246.9056,-168.0332"/>
<polygon fill="#000000" stroke="#000000" points="1248.9493,-165.1822 1239.0054,-161.5258 1244.4988,-170.5853 1248.9493,-165.1822"/>
</g>
<!-- 26 -->
<g id="node27" class="node">
<title>26</title>
<polygon fill="none" stroke="#000000" points="1407.0463,-169.7003 1269.2741,-169.7003 1269.2741,-94.2997 1407.0463,-94.2997 1407.0463,-169.7003"/>
<text text-anchor="middle" x="1338.1602" y="-153" font-family="Helvetica,sans-Serif" font-size="14.00" fill="#000000">Pregnancies &lt;= 9.5</text>
<text text-anchor="middle" x="1338.1602" y="-136.2" font-family="Helvetica,sans-Serif" font-size="14.00" fill="#000000">gini = 0.105</text>
<text text-anchor="middle" x="1338.1602" y="-119.4" font-family="Helvetica,sans-Serif" font-size="14.00" fill="#000000">samples = 36</text>
<text text-anchor="middle" x="1338.1602" y="-102.6" font-family="Helvetica,sans-Serif" font-size="14.00" fill="#000000">value = [34, 2]</text>
</g>
<!-- 24&#45;&gt;26 -->
<g id="edge26" class="edge">
<title>24-&gt;26</title>
<path fill="none" stroke="#000000" d="M1338.1602,-205.5528C1338.1602,-197.22 1338.1602,-188.2845 1338.1602,-179.6137"/>
<polygon fill="#000000" stroke="#000000" points="1341.6603,-179.6084 1338.1602,-169.6085 1334.6603,-179.6085 1341.6603,-179.6084"/>
</g>
<!-- 27 -->
<g id="node28" class="node">
<title>27</title>
<polygon fill="none" stroke="#000000" points="1272.4811,-58.6014 1167.8393,-58.6014 1167.8393,.2014 1272.4811,.2014 1272.4811,-58.6014"/>
<text text-anchor="middle" x="1220.1602" y="-41.8" font-family="Helvetica,sans-Serif" font-size="14.00" fill="#000000">gini = 0.0</text>
<text text-anchor="middle" x="1220.1602" y="-25" font-family="Helvetica,sans-Serif" font-size="14.00" fill="#000000">samples = 27</text>
<text text-anchor="middle" x="1220.1602" y="-8.2" font-family="Helvetica,sans-Serif" font-size="14.00" fill="#000000">value = [27, 0]</text>
</g>
<!-- 26&#45;&gt;27 -->
<g id="edge27" class="edge">
<title>26-&gt;27</title>
<path fill="none" stroke="#000000" d="M1294.8914,-94.3048C1283.988,-84.806 1272.3114,-74.6335 1261.5052,-65.2192"/>
<polygon fill="#000000" stroke="#000000" points="1263.653,-62.4484 1253.8139,-58.5186 1259.0548,-67.7264 1263.653,-62.4484"/>
</g>
<!-- 28 -->
<g id="node29" class="node">
<title>28</title>
<polygon fill="none" stroke="#000000" points="1386.1991,-58.6014 1290.1213,-58.6014 1290.1213,.2014 1386.1991,.2014 1386.1991,-58.6014"/>
<text text-anchor="middle" x="1338.1602" y="-41.8" font-family="Helvetica,sans-Serif" font-size="14.00" fill="#000000">gini = 0.346</text>
<text text-anchor="middle" x="1338.1602" y="-25" font-family="Helvetica,sans-Serif" font-size="14.00" fill="#000000">samples = 9</text>
<text text-anchor="middle" x="1338.1602" y="-8.2" font-family="Helvetica,sans-Serif" font-size="14.00" fill="#000000">value = [7, 2]</text>
</g>
<!-- 26&#45;&gt;28 -->
<g id="edge28" class="edge">
<title>26-&gt;28</title>
<path fill="none" stroke="#000000" d="M1338.1602,-94.3048C1338.1602,-85.9126 1338.1602,-76.9946 1338.1602,-68.5382"/>
<polygon fill="#000000" stroke="#000000" points="1341.6603,-68.5186 1338.1602,-58.5186 1334.6603,-68.5187 1341.6603,-68.5186"/>
</g>
<!-- 30 -->
<g id="node31" class="node">
<title>30</title>
<polygon fill="none" stroke="#000000" points="1557.6576,-169.7003 1430.6628,-169.7003 1430.6628,-94.2997 1557.6576,-94.2997 1557.6576,-169.7003"/>
<text text-anchor="middle" x="1494.1602" y="-153" font-family="Helvetica,sans-Serif" font-size="14.00" fill="#000000">Glucose &lt;= 124.5</text>
<text text-anchor="middle" x="1494.1602" y="-136.2" font-family="Helvetica,sans-Serif" font-size="14.00" fill="#000000">gini = 0.117</text>
<text text-anchor="middle" x="1494.1602" y="-119.4" font-family="Helvetica,sans-Serif" font-size="14.00" fill="#000000">samples = 32</text>
<text text-anchor="middle" x="1494.1602" y="-102.6" font-family="Helvetica,sans-Serif" font-size="14.00" fill="#000000">value = [30, 2]</text>
</g>
<!-- 29&#45;&gt;30 -->
<g id="edge30" class="edge">
<title>29-&gt;30</title>
<path fill="none" stroke="#000000" d="M1494.1602,-205.5528C1494.1602,-197.22 1494.1602,-188.2845 1494.1602,-179.6137"/>
<polygon fill="#000000" stroke="#000000" points="1497.6603,-179.6084 1494.1602,-169.6085 1490.6603,-179.6085 1497.6603,-179.6084"/>
</g>
<!-- 33 -->
<g id="node34" class="node">
<title>33</title>
<polygon fill="none" stroke="#000000" points="1820.2428,-169.7003 1580.0776,-169.7003 1580.0776,-94.2997 1820.2428,-94.2997 1820.2428,-169.7003"/>
<text text-anchor="middle" x="1700.1602" y="-153" font-family="Helvetica,sans-Serif" font-size="14.00" fill="#000000">DiabetesPedigreeFunction &lt;= 0.528</text>
<text text-anchor="middle" x="1700.1602" y="-136.2" font-family="Helvetica,sans-Serif" font-size="14.00" fill="#000000">gini = 0.496</text>
<text text-anchor="middle" x="1700.1602" y="-119.4" font-family="Helvetica,sans-Serif" font-size="14.00" fill="#000000">samples = 173</text>
<text text-anchor="middle" x="1700.1602" y="-102.6" font-family="Helvetica,sans-Serif" font-size="14.00" fill="#000000">value = [79, 94]</text>
</g>
<!-- 29&#45;&gt;33 -->
<g id="edge33" class="edge">
<title>29-&gt;33</title>
<path fill="none" stroke="#000000" d="M1554.2977,-210.7374C1575.173,-199.4688 1598.9073,-186.6569 1621.0768,-174.6897"/>
<polygon fill="#000000" stroke="#000000" points="1623.0023,-177.6277 1630.1395,-169.7976 1619.6772,-171.4679 1623.0023,-177.6277"/>
</g>
<!-- 31 -->
<g id="node32" class="node">
<title>31</title>
<polygon fill="none" stroke="#000000" points="1508.4811,-58.6014 1403.8393,-58.6014 1403.8393,.2014 1508.4811,.2014 1508.4811,-58.6014"/>
<text text-anchor="middle" x="1456.1602" y="-41.8" font-family="Helvetica,sans-Serif" font-size="14.00" fill="#000000">gini = 0.0</text>
<text text-anchor="middle" x="1456.1602" y="-25" font-family="Helvetica,sans-Serif" font-size="14.00" fill="#000000">samples = 22</text>
<text text-anchor="middle" x="1456.1602" y="-8.2" font-family="Helvetica,sans-Serif" font-size="14.00" fill="#000000">value = [22, 0]</text>
</g>
<!-- 30&#45;&gt;31 -->
<g id="edge31" class="edge">
<title>30-&gt;31</title>
<path fill="none" stroke="#000000" d="M1480.2262,-94.3048C1477.0558,-85.7282 1473.6825,-76.6024 1470.4957,-67.9813"/>
<polygon fill="#000000" stroke="#000000" points="1473.748,-66.6848 1466.9978,-58.5186 1467.1822,-69.1119 1473.748,-66.6848"/>
</g>
<!-- 32 -->
<g id="node33" class="node">
<title>32</title>
<polygon fill="none" stroke="#000000" points="1625.7969,-58.6014 1526.5235,-58.6014 1526.5235,.2014 1625.7969,.2014 1625.7969,-58.6014"/>
<text text-anchor="middle" x="1576.1602" y="-41.8" font-family="Helvetica,sans-Serif" font-size="14.00" fill="#000000">gini = 0.32</text>
<text text-anchor="middle" x="1576.1602" y="-25" font-family="Helvetica,sans-Serif" font-size="14.00" fill="#000000">samples = 10</text>
<text text-anchor="middle" x="1576.1602" y="-8.2" font-family="Helvetica,sans-Serif" font-size="14.00" fill="#000000">value = [8, 2]</text>
</g>
<!-- 30&#45;&gt;32 -->
<g id="edge32" class="edge">
<title>30-&gt;32</title>
<path fill="none" stroke="#000000" d="M1524.2284,-94.3048C1531.4374,-85.2671 1539.133,-75.6195 1546.3312,-66.5954"/>
<polygon fill="#000000" stroke="#000000" points="1549.2741,-68.5188 1552.7737,-58.5186 1543.8017,-64.1537 1549.2741,-68.5188"/>
</g>
<!-- 34 -->
<g id="node35" class="node">
<title>34</title>
<polygon fill="none" stroke="#000000" points="1756.2632,-58.6014 1644.0572,-58.6014 1644.0572,.2014 1756.2632,.2014 1756.2632,-58.6014"/>
<text text-anchor="middle" x="1700.1602" y="-41.8" font-family="Helvetica,sans-Serif" font-size="14.00" fill="#000000">gini = 0.495</text>
<text text-anchor="middle" x="1700.1602" y="-25" font-family="Helvetica,sans-Serif" font-size="14.00" fill="#000000">samples = 113</text>
<text text-anchor="middle" x="1700.1602" y="-8.2" font-family="Helvetica,sans-Serif" font-size="14.00" fill="#000000">value = [62, 51]</text>
</g>
<!-- 33&#45;&gt;34 -->
<g id="edge34" class="edge">
<title>33-&gt;34</title>
<path fill="none" stroke="#000000" d="M1700.1602,-94.3048C1700.1602,-85.9126 1700.1602,-76.9946 1700.1602,-68.5382"/>
<polygon fill="#000000" stroke="#000000" points="1703.6603,-68.5186 1700.1602,-58.5186 1696.6603,-68.5187 1703.6603,-68.5186"/>
</g>
<!-- 35 -->
<g id="node36" class="node">
<title>35</title>
<polygon fill="none" stroke="#000000" points="1886.2632,-58.6014 1774.0572,-58.6014 1774.0572,.2014 1886.2632,.2014 1886.2632,-58.6014"/>
<text text-anchor="middle" x="1830.1602" y="-41.8" font-family="Helvetica,sans-Serif" font-size="14.00" fill="#000000">gini = 0.406</text>
<text text-anchor="middle" x="1830.1602" y="-25" font-family="Helvetica,sans-Serif" font-size="14.00" fill="#000000">samples = 60</text>
<text text-anchor="middle" x="1830.1602" y="-8.2" font-family="Helvetica,sans-Serif" font-size="14.00" fill="#000000">value = [17, 43]</text>
</g>
<!-- 33&#45;&gt;35 -->
<g id="edge35" class="edge">
<title>33-&gt;35</title>
<path fill="none" stroke="#000000" d="M1747.8292,-94.3048C1759.958,-84.7137 1772.9553,-74.4359 1784.9571,-64.9452"/>
<polygon fill="#000000" stroke="#000000" points="1787.4112,-67.4667 1793.0841,-58.5186 1783.0692,-61.976 1787.4112,-67.4667"/>
</g>
<!-- 37 -->
<g id="node38" class="node">
<title>37</title>
<polygon fill="none" stroke="#000000" points="1775.7969,-272.6014 1676.5235,-272.6014 1676.5235,-213.7986 1775.7969,-213.7986 1775.7969,-272.6014"/>
<text text-anchor="middle" x="1726.1602" y="-255.8" font-family="Helvetica,sans-Serif" font-size="14.00" fill="#000000">gini = 0.473</text>
<text text-anchor="middle" x="1726.1602" y="-239" font-family="Helvetica,sans-Serif" font-size="14.00" fill="#000000">samples = 13</text>
<text text-anchor="middle" x="1726.1602" y="-222.2" font-family="Helvetica,sans-Serif" font-size="14.00" fill="#000000">value = [5, 8]</text>
</g>
<!-- 36&#45;&gt;37 -->
<g id="edge37" class="edge">
<title>36-&gt;37</title>
<path fill="none" stroke="#000000" d="M1726.1602,-316.7528C1726.1602,-305.8662 1726.1602,-293.951 1726.1602,-282.9411"/>
<polygon fill="#000000" stroke="#000000" points="1729.6603,-282.7258 1726.1602,-272.7258 1722.6603,-282.7259 1729.6603,-282.7258"/>
</g>
<!-- 38 -->
<g id="node39" class="node">
<title>38</title>
<polygon fill="none" stroke="#000000" points="2013.7639,-280.9003 1898.5565,-280.9003 1898.5565,-205.4997 2013.7639,-205.4997 2013.7639,-280.9003"/>
<text text-anchor="middle" x="1956.1602" y="-264.2" font-family="Helvetica,sans-Serif" font-size="14.00" fill="#000000">Insulin &lt;= 416.0</text>
<text text-anchor="middle" x="1956.1602" y="-247.4" font-family="Helvetica,sans-Serif" font-size="14.00" fill="#000000">gini = 0.194</text>
<text text-anchor="middle" x="1956.1602" y="-230.6" font-family="Helvetica,sans-Serif" font-size="14.00" fill="#000000">samples = 55</text>
<text text-anchor="middle" x="1956.1602" y="-213.8" font-family="Helvetica,sans-Serif" font-size="14.00" fill="#000000">value = [6, 49]</text>
</g>
<!-- 36&#45;&gt;38 -->
<g id="edge38" class="edge">
<title>36-&gt;38</title>
<path fill="none" stroke="#000000" d="M1782.4245,-327.1974C1814.6384,-311.6227 1855.2575,-291.9843 1889.1187,-275.6131"/>
<polygon fill="#000000" stroke="#000000" points="1890.9979,-278.5922 1898.4775,-271.0884 1887.951,-272.2901 1890.9979,-278.5922"/>
</g>
<!-- 39 -->
<g id="node40" class="node">
<title>39</title>
<polygon fill="none" stroke="#000000" points="2013.7639,-169.7003 1898.5565,-169.7003 1898.5565,-94.2997 2013.7639,-94.2997 2013.7639,-169.7003"/>
<text text-anchor="middle" x="1956.1602" y="-153" font-family="Helvetica,sans-Serif" font-size="14.00" fill="#000000">Insulin &lt;= 171.5</text>
<text text-anchor="middle" x="1956.1602" y="-136.2" font-family="Helvetica,sans-Serif" font-size="14.00" fill="#000000">gini = 0.147</text>
<text text-anchor="middle" x="1956.1602" y="-119.4" font-family="Helvetica,sans-Serif" font-size="14.00" fill="#000000">samples = 50</text>
<text text-anchor="middle" x="1956.1602" y="-102.6" font-family="Helvetica,sans-Serif" font-size="14.00" fill="#000000">value = [4, 46]</text>
</g>
<!-- 38&#45;&gt;39 -->
<g id="edge39" class="edge">
<title>38-&gt;39</title>
<path fill="none" stroke="#000000" d="M1956.1602,-205.5528C1956.1602,-197.22 1956.1602,-188.2845 1956.1602,-179.6137"/>
<polygon fill="#000000" stroke="#000000" points="1959.6603,-179.6084 1956.1602,-169.6085 1952.6603,-179.6085 1959.6603,-179.6084"/>
</g>
<!-- 42 -->
<g id="node43" class="node">
<title>42</title>
<polygon fill="none" stroke="#000000" points="2128.1991,-161.4014 2032.1213,-161.4014 2032.1213,-102.5986 2128.1991,-102.5986 2128.1991,-161.4014"/>
<text text-anchor="middle" x="2080.1602" y="-144.6" font-family="Helvetica,sans-Serif" font-size="14.00" fill="#000000">gini = 0.48</text>
<text text-anchor="middle" x="2080.1602" y="-127.8" font-family="Helvetica,sans-Serif" font-size="14.00" fill="#000000">samples = 5</text>
<text text-anchor="middle" x="2080.1602" y="-111" font-family="Helvetica,sans-Serif" font-size="14.00" fill="#000000">value = [2, 3]</text>
</g>
<!-- 38&#45;&gt;42 -->
<g id="edge42" class="edge">
<title>38-&gt;42</title>
<path fill="none" stroke="#000000" d="M1998.1409,-205.5528C2011.5321,-193.5439 2026.3191,-180.2833 2039.6071,-168.367"/>
<polygon fill="#000000" stroke="#000000" points="2042.1276,-170.8079 2047.2357,-161.5258 2037.4541,-165.5965 2042.1276,-170.8079"/>
</g>
<!-- 40 -->
<g id="node41" class="node">
<title>40</title>
<polygon fill="none" stroke="#000000" points="2008.4811,-58.6014 1903.8393,-58.6014 1903.8393,.2014 2008.4811,.2014 2008.4811,-58.6014"/>
<text text-anchor="middle" x="1956.1602" y="-41.8" font-family="Helvetica,sans-Serif" font-size="14.00" fill="#000000">gini = 0.213</text>
<text text-anchor="middle" x="1956.1602" y="-25" font-family="Helvetica,sans-Serif" font-size="14.00" fill="#000000">samples = 33</text>
<text text-anchor="middle" x="1956.1602" y="-8.2" font-family="Helvetica,sans-Serif" font-size="14.00" fill="#000000">value = [4, 29]</text>
</g>
<!-- 39&#45;&gt;40 -->
<g id="edge40" class="edge">
<title>39-&gt;40</title>
<path fill="none" stroke="#000000" d="M1956.1602,-94.3048C1956.1602,-85.9126 1956.1602,-76.9946 1956.1602,-68.5382"/>
<polygon fill="#000000" stroke="#000000" points="1959.6603,-68.5186 1956.1602,-58.5186 1952.6603,-68.5187 1959.6603,-68.5186"/>
</g>
<!-- 41 -->
<g id="node42" class="node">
<title>41</title>
<polygon fill="none" stroke="#000000" points="2130.4811,-58.6014 2025.8393,-58.6014 2025.8393,.2014 2130.4811,.2014 2130.4811,-58.6014"/>
<text text-anchor="middle" x="2078.1602" y="-41.8" font-family="Helvetica,sans-Serif" font-size="14.00" fill="#000000">gini = 0.0</text>
<text text-anchor="middle" x="2078.1602" y="-25" font-family="Helvetica,sans-Serif" font-size="14.00" fill="#000000">samples = 17</text>
<text text-anchor="middle" x="2078.1602" y="-8.2" font-family="Helvetica,sans-Serif" font-size="14.00" fill="#000000">value = [0, 17]</text>
</g>
<!-- 39&#45;&gt;41 -->
<g id="edge41" class="edge">
<title>39-&gt;41</title>
<path fill="none" stroke="#000000" d="M2000.8957,-94.3048C2012.1687,-84.806 2024.2411,-74.6335 2035.4137,-65.2192"/>
<polygon fill="#000000" stroke="#000000" points="2037.9738,-67.6389 2043.3657,-58.5186 2033.4632,-62.2858 2037.9738,-67.6389"/>
</g>
</g>
</svg>