<?xml version="1.0" encoding="UTF-8" standalone="no"?><!DOCTYPE svg PUBLIC "-//W3C//DTD SVG 1.1//EN" "http://www.w3.org/Graphics/SVG/1.1/DTD/svg11.dtd"><!-- Generated by graphviz version 2.40.1 (20161225.0304)
 --><!-- Title: Tree Pages: 1 --><svg xmlns="http://www.w3.org/2000/svg" xmlns:xlink="http://www.w3.org/1999/xlink" width="220pt" height="178pt" viewBox="0.00 0.00 219.54 177.60">
<g id="graph0" class="graph" transform="scale(1 1) rotate(0) translate(4 173.6)">
<title>Tree</title>
<polygon fill="#ffffff" stroke="transparent" points="-4,4 -4,-173.6 215.5378,-173.6 215.5378,4 -4,4"/>
<!-- 0 -->
<g id="node1" class="node">
<title>0</title>
<polygon fill="none" stroke="#000000" points="155.5783,-169.7003 54.9595,-169.7003 54.9595,-94.2997 155.5783,-94.2997 155.5783,-169.7003"/>
<text text-anchor="middle" x="105.2689" y="-153" font-family="Helvetica,sans-Serif" font-size="14.00" fill="#000000">history &lt;= 2.5</text>
<text text-anchor="middle" x="105.2689" y="-136.2" font-family="Helvetica,sans-Serif" font-size="14.00" fill="#000000">gini = 0.278</text>
<text text-anchor="middle" x="105.2689" y="-119.4" font-family="Helvetica,sans-Serif" font-size="14.00" fill="#000000">samples = 6</text>
<text text-anchor="middle" x="105.2689" y="-102.6" font-family="Helvetica,sans-Serif" font-size="14.00" fill="#000000">value = [5, 1]</text>
</g>
<!-- 1 -->
<g id="node2" class="node">
<title>1</title>
<polygon fill="none" stroke="#000000" points="96.3078,-58.6014 .23,-58.6014 .23,.2014 96.3078,.2014 96.3078,-58.6014"/>
<text text-anchor="middle" x="48.2689" y="-41.8" font-family="Helvetica,sans-Serif" font-size="14.00" fill="#000000">gini = 0.0</text>
<text text-anchor="middle" x="48.2689" y="-25" font-family="Helvetica,sans-Serif" font-size="14.00" fill="#000000">samples = 4</text>
<text text-anchor="middle" x="48.2689" y="-8.2" font-family="Helvetica,sans-Serif" font-size="14.00" fill="#000000">value = [4, 0]</text>
</g>
<!-- 0&#45;&gt;1 -->
<g id="edge1" class="edge">
<title>0-&gt;1</title>
<path fill="none" stroke="#000000" d="M84.3679,-94.3048C79.5101,-85.5437 74.3345,-76.2096 69.4642,-67.4259"/>
<polygon fill="#000000" stroke="#000000" points="72.4356,-65.567 64.5253,-58.5186 66.3136,-68.9615 72.4356,-65.567"/>
<text text-anchor="middle" x="57.6375" y="-78.351" font-family="Helvetica,sans-Serif" font-size="14.00" fill="#000000">True</text>
</g>
<!-- 2 -->
<g id="node3" class="node">
<title>2</title>
<polygon fill="none" stroke="#000000" points="211.3078,-58.6014 115.23,-58.6014 115.23,.2014 211.3078,.2014 211.3078,-58.6014"/>
<text text-anchor="middle" x="163.2689" y="-41.8" font-family="Helvetica,sans-Serif" font-size="14.00" fill="#000000">gini = 0.5</text>
<text text-anchor="middle" x="163.2689" y="-25" font-family="Helvetica,sans-Serif" font-size="14.00" fill="#000000">samples = 2</text>
<text text-anchor="middle" x="163.2689" y="-8.2" font-family="Helvetica,sans-Serif" font-size="14.00" fill="#000000">value = [1, 1]</text>
</g>
<!-- 0&#45;&gt;2 -->
<g id="edge2" class="edge">
<title>0-&gt;2</title>
<path fill="none" stroke="#000000" d="M126.5366,-94.3048C131.4796,-85.5437 136.746,-76.2096 141.7018,-67.4259"/>
<polygon fill="#000000" stroke="#000000" points="144.8616,-68.9479 146.7273,-58.5186 138.765,-65.5082 144.8616,-68.9479"/>
<text text-anchor="middle" x="153.4369" y="-78.4014" font-family="Helvetica,sans-Serif" font-size="14.00" fill="#000000">False</text>
</g>
</g>
</svg>