<?xml version="1.0" encoding="UTF-8" standalone="no"?><!DOCTYPE svg PUBLIC "-//W3C//DTD SVG 1.1//EN" "http://www.w3.org/Graphics/SVG/1.1/DTD/svg11.dtd"><!-- Generated by graphviz version 2.40.1 (20161225.0304)
 --><!-- Title: Tree Pages: 1 --><svg xmlns="http://www.w3.org/2000/svg" xmlns:xlink="http://www.w3.org/1999/xlink" width="1006pt" height="400pt" viewBox="0.00 0.00 1006.21 400.00">
<g id="graph0" class="graph" transform="scale(1 1) rotate(0) translate(4 396)">
<title>Tree</title>
<polygon fill="#ffffff" stroke="transparent" points="-4,4 -4,-396 1002.2117,-396 1002.2117,4 -4,4"/>
<!-- 0 -->
<g id="node1" class="node">
<title>0</title>
<polygon fill="none" stroke="#000000" points="539.7201,-392.1003 412.3829,-392.1003 412.3829,-316.6997 539.7201,-316.6997 539.7201,-392.1003"/>
<text text-anchor="middle" x="476.0515" y="-375.4" font-family="Helvetica,sans-Serif" font-size="14.00" fill="#000000">Glucose &lt;= 127.5</text>
<text text-anchor="middle" x="476.0515" y="-358.6" font-family="Helvetica,sans-Serif" font-size="14.00" fill="#000000">gini = 0.453</text>
<text text-anchor="middle" x="476.0515" y="-341.8" font-family="Helvetica,sans-Serif" font-size="14.00" fill="#000000">samples = 614</text>
<text text-anchor="middle" x="476.0515" y="-325" font-family="Helvetica,sans-Serif" font-size="14.00" fill="#000000">value = [401, 213]</text>
</g>
<!-- 1 -->
<g id="node2" class="node">
<title>1</title>
<polygon fill="none" stroke="#000000" points="465.9372,-280.9003 346.1658,-280.9003 346.1658,-205.4997 465.9372,-205.4997 465.9372,-280.9003"/>
<text text-anchor="middle" x="406.0515" y="-264.2" font-family="Helvetica,sans-Serif" font-size="14.00" fill="#000000">Age &lt;= 28.5</text>
<text text-anchor="middle" x="406.0515" y="-247.4" font-family="Helvetica,sans-Serif" font-size="14.00" fill="#000000">gini = 0.314</text>
<text text-anchor="middle" x="406.0515" y="-230.6" font-family="Helvetica,sans-Serif" font-size="14.00" fill="#000000">samples = 390</text>
<text text-anchor="middle" x="406.0515" y="-213.8" font-family="Helvetica,sans-Serif" font-size="14.00" fill="#000000">value = [314, 76]</text>
</g>
<!-- 0&#45;&gt;1 -->
<g id="edge1" class="edge">
<title>0-&gt;1</title>
<path fill="none" stroke="#000000" d="M452.3527,-316.7528C446.8222,-307.9671 440.8699,-298.5115 435.1358,-289.4025"/>
<polygon fill="#000000" stroke="#000000" points="438.0153,-287.4067 429.7259,-280.8085 432.0913,-291.1359 438.0153,-287.4067"/>
<text text-anchor="middle" x="424.183" y="-300.9863" font-family="Helvetica,sans-Serif" font-size="14.00" fill="#000000">True</text>
</g>
<!-- 8 -->
<g id="node9" class="node">
<title>8</title>
<polygon fill="none" stroke="#000000" points="655.9372,-280.9003 536.1658,-280.9003 536.1658,-205.4997 655.9372,-205.4997 655.9372,-280.9003"/>
<text text-anchor="middle" x="596.0515" y="-264.2" font-family="Helvetica,sans-Serif" font-size="14.00" fill="#000000">BMI &lt;= 29.95</text>
<text text-anchor="middle" x="596.0515" y="-247.4" font-family="Helvetica,sans-Serif" font-size="14.00" fill="#000000">gini = 0.475</text>
<text text-anchor="middle" x="596.0515" y="-230.6" font-family="Helvetica,sans-Serif" font-size="14.00" fill="#000000">samples = 224</text>
<text text-anchor="middle" x="596.0515" y="-213.8" font-family="Helvetica,sans-Serif" font-size="14.00" fill="#000000">value = [87, 137]</text>
</g>
<!-- 0&#45;&gt;8 -->
<g id="edge8" class="edge">
<title>0-&gt;8</title>
<path fill="none" stroke="#000000" d="M516.678,-316.7528C526.7454,-307.4237 537.6279,-297.3392 548.0122,-287.7164"/>
<polygon fill="#000000" stroke="#000000" points="550.5109,-290.1727 555.4668,-280.8085 545.7529,-285.0383 550.5109,-290.1727"/>
<text text-anchor="middle" x="554.5159" y="-301.5904" font-family="Helvetica,sans-Serif" font-size="14.00" fill="#000000">False</text>
</g>
<!-- 2 -->
<g id="node3" class="node">
<title>2</title>
<polygon fill="none" stroke="#000000" points="245.9372,-169.7003 126.1658,-169.7003 126.1658,-94.2997 245.9372,-94.2997 245.9372,-169.7003"/>
<text text-anchor="middle" x="186.0515" y="-153" font-family="Helvetica,sans-Serif" font-size="14.00" fill="#000000">BMI &lt;= 30.95</text>
<text text-anchor="middle" x="186.0515" y="-136.2" font-family="Helvetica,sans-Serif" font-size="14.00" fill="#000000">gini = 0.142</text>
<text text-anchor="middle" x="186.0515" y="-119.4" font-family="Helvetica,sans-Serif" font-size="14.00" fill="#000000">samples = 221</text>
<text text-anchor="middle" x="186.0515" y="-102.6" font-family="Helvetica,sans-Serif" font-size="14.00" fill="#000000">value = [204, 17]</text>
</g>
<!-- 1&#45;&gt;2 -->
<g id="edge2" class="edge">
<title>1-&gt;2</title>
<path fill="none" stroke="#000000" d="M345.9355,-212.8141C317.9247,-198.6559 284.4387,-181.7303 255.3663,-167.0355"/>
<polygon fill="#000000" stroke="#000000" points="256.5984,-163.7366 246.0948,-162.3491 253.4406,-169.9839 256.5984,-163.7366"/>
</g>
<!-- 5 -->
<g id="node6" class="node">
<title>5</title>
<polygon fill="none" stroke="#000000" points="465.9372,-169.7003 346.1658,-169.7003 346.1658,-94.2997 465.9372,-94.2997 465.9372,-169.7003"/>
<text text-anchor="middle" x="406.0515" y="-153" font-family="Helvetica,sans-Serif" font-size="14.00" fill="#000000">BMI &lt;= 26.35</text>
<text text-anchor="middle" x="406.0515" y="-136.2" font-family="Helvetica,sans-Serif" font-size="14.00" fill="#000000">gini = 0.454</text>
<text text-anchor="middle" x="406.0515" y="-119.4" font-family="Helvetica,sans-Serif" font-size="14.00" fill="#000000">samples = 169</text>
<text text-anchor="middle" x="406.0515" y="-102.6" font-family="Helvetica,sans-Serif" font-size="14.00" fill="#000000">value = [110, 59]</text>
</g>
<!-- 1&#45;&gt;5 -->
<g id="edge5" class="edge">
<title>1-&gt;5</title>
<path fill="none" stroke="#000000" d="M406.0515,-205.5528C406.0515,-197.22 406.0515,-188.2845 406.0515,-179.6137"/>
<polygon fill="#000000" stroke="#000000" points="409.5516,-179.6084 406.0515,-169.6085 402.5516,-179.6085 409.5516,-179.6084"/>
</g>
<!-- 3 -->
<g id="node4" class="node">
<title>3</title>
<polygon fill="none" stroke="#000000" points="112.1545,-58.6014 -.0515,-58.6014 -.0515,.2014 112.1545,.2014 112.1545,-58.6014"/>
<text text-anchor="middle" x="56.0515" y="-41.8" font-family="Helvetica,sans-Serif" font-size="14.00" fill="#000000">gini = 0.016</text>
<text text-anchor="middle" x="56.0515" y="-25" font-family="Helvetica,sans-Serif" font-size="14.00" fill="#000000">samples = 124</text>
<text text-anchor="middle" x="56.0515" y="-8.2" font-family="Helvetica,sans-Serif" font-size="14.00" fill="#000000">value = [123, 1]</text>
</g>
<!-- 2&#45;&gt;3 -->
<g id="edge3" class="edge">
<title>2-&gt;3</title>
<path fill="none" stroke="#000000" d="M138.3825,-94.3048C126.2537,-84.7137 113.2564,-74.4359 101.2546,-64.9452"/>
<polygon fill="#000000" stroke="#000000" points="103.1425,-61.976 93.1276,-58.5186 98.8005,-67.4667 103.1425,-61.976"/>
</g>
<!-- 4 -->
<g id="node5" class="node">
<title>4</title>
<polygon fill="none" stroke="#000000" points="242.1545,-58.6014 129.9485,-58.6014 129.9485,.2014 242.1545,.2014 242.1545,-58.6014"/>
<text text-anchor="middle" x="186.0515" y="-41.8" font-family="Helvetica,sans-Serif" font-size="14.00" fill="#000000">gini = 0.275</text>
<text text-anchor="middle" x="186.0515" y="-25" font-family="Helvetica,sans-Serif" font-size="14.00" fill="#000000">samples = 97</text>
<text text-anchor="middle" x="186.0515" y="-8.2" font-family="Helvetica,sans-Serif" font-size="14.00" fill="#000000">value = [81, 16]</text>
</g>
<!-- 2&#45;&gt;4 -->
<g id="edge4" class="edge">
<title>2-&gt;4</title>
<path fill="none" stroke="#000000" d="M186.0515,-94.3048C186.0515,-85.9126 186.0515,-76.9946 186.0515,-68.5382"/>
<polygon fill="#000000" stroke="#000000" points="189.5516,-68.5186 186.0515,-58.5186 182.5516,-68.5187 189.5516,-68.5186"/>
</g>
<!-- 6 -->
<g id="node7" class="node">
<title>6</title>
<polygon fill="none" stroke="#000000" points="364.3724,-58.6014 259.7306,-58.6014 259.7306,.2014 364.3724,.2014 364.3724,-58.6014"/>
<text text-anchor="middle" x="312.0515" y="-41.8" font-family="Helvetica,sans-Serif" font-size="14.00" fill="#000000">gini = 0.057</text>
<text text-anchor="middle" x="312.0515" y="-25" font-family="Helvetica,sans-Serif" font-size="14.00" fill="#000000">samples = 34</text>
<text text-anchor="middle" x="312.0515" y="-8.2" font-family="Helvetica,sans-Serif" font-size="14.00" fill="#000000">value = [33, 1]</text>
</g>
<!-- 5&#45;&gt;6 -->
<g id="edge6" class="edge">
<title>5-&gt;6</title>
<path fill="none" stroke="#000000" d="M371.5831,-94.3048C363.1504,-85.0826 354.137,-75.2255 345.7413,-66.0437"/>
<polygon fill="#000000" stroke="#000000" points="348.1915,-63.5367 338.8604,-58.5186 343.0256,-68.2604 348.1915,-63.5367"/>
</g>
<!-- 7 -->
<g id="node8" class="node">
<title>7</title>
<polygon fill="none" stroke="#000000" points="494.1545,-58.6014 381.9485,-58.6014 381.9485,.2014 494.1545,.2014 494.1545,-58.6014"/>
<text text-anchor="middle" x="438.0515" y="-41.8" font-family="Helvetica,sans-Serif" font-size="14.00" fill="#000000">gini = 0.49</text>
<text text-anchor="middle" x="438.0515" y="-25" font-family="Helvetica,sans-Serif" font-size="14.00" fill="#000000">samples = 135</text>
<text text-anchor="middle" x="438.0515" y="-8.2" font-family="Helvetica,sans-Serif" font-size="14.00" fill="#000000">value = [77, 58]</text>
</g>
<!-- 5&#45;&gt;7 -->
<g id="edge7" class="edge">
<title>5-&gt;7</title>
<path fill="none" stroke="#000000" d="M417.7854,-94.3048C420.4265,-85.8204 423.2348,-76.7985 425.8929,-68.2596"/>
<polygon fill="#000000" stroke="#000000" points="429.2947,-69.107 428.9251,-58.5186 422.611,-67.0265 429.2947,-69.107"/>
</g>
<!-- 9 -->
<g id="node10" class="node">
<title>9</title>
<polygon fill="none" stroke="#000000" points="659.5489,-169.7003 532.5541,-169.7003 532.5541,-94.2997 659.5489,-94.2997 659.5489,-169.7003"/>
<text text-anchor="middle" x="596.0515" y="-153" font-family="Helvetica,sans-Serif" font-size="14.00" fill="#000000">Glucose &lt;= 146.5</text>
<text text-anchor="middle" x="596.0515" y="-136.2" font-family="Helvetica,sans-Serif" font-size="14.00" fill="#000000">gini = 0.429</text>
<text text-anchor="middle" x="596.0515" y="-119.4" font-family="Helvetica,sans-Serif" font-size="14.00" fill="#000000">samples = 61</text>
<text text-anchor="middle" x="596.0515" y="-102.6" font-family="Helvetica,sans-Serif" font-size="14.00" fill="#000000">value = [42, 19]</text>
</g>
<!-- 8&#45;&gt;9 -->
<g id="edge9" class="edge">
<title>8-&gt;9</title>
<path fill="none" stroke="#000000" d="M596.0515,-205.5528C596.0515,-197.22 596.0515,-188.2845 596.0515,-179.6137"/>
<polygon fill="#000000" stroke="#000000" points="599.5516,-179.6084 596.0515,-169.6085 592.5516,-179.6085 599.5516,-179.6084"/>
</g>
<!-- 12 -->
<g id="node13" class="node">
<title>12</title>
<polygon fill="none" stroke="#000000" points="883.5489,-169.7003 756.5541,-169.7003 756.5541,-94.2997 883.5489,-94.2997 883.5489,-169.7003"/>
<text text-anchor="middle" x="820.0515" y="-153" font-family="Helvetica,sans-Serif" font-size="14.00" fill="#000000">Glucose &lt;= 165.5</text>
<text text-anchor="middle" x="820.0515" y="-136.2" font-family="Helvetica,sans-Serif" font-size="14.00" fill="#000000">gini = 0.4</text>
<text text-anchor="middle" x="820.0515" y="-119.4" font-family="Helvetica,sans-Serif" font-size="14.00" fill="#000000">samples = 163</text>
<text text-anchor="middle" x="820.0515" y="-102.6" font-family="Helvetica,sans-Serif" font-size="14.00" fill="#000000">value = [45, 118]</text>
</g>
<!-- 8&#45;&gt;12 -->
<g id="edge12" class="edge">
<title>8-&gt;12</title>
<path fill="none" stroke="#000000" d="M656.0794,-213.4004C684.2658,-199.4079 718.095,-182.6141 747.6864,-167.9241"/>
<polygon fill="#000000" stroke="#000000" points="749.3222,-171.0197 756.7229,-163.4381 746.2096,-164.7497 749.3222,-171.0197"/>
</g>
<!-- 10 -->
<g id="node11" class="node">
<title>10</title>
<polygon fill="none" stroke="#000000" points="616.3724,-58.6014 511.7306,-58.6014 511.7306,.2014 616.3724,.2014 616.3724,-58.6014"/>
<text text-anchor="middle" x="564.0515" y="-41.8" font-family="Helvetica,sans-Serif" font-size="14.00" fill="#000000">gini = 0.239</text>
<text text-anchor="middle" x="564.0515" y="-25" font-family="Helvetica,sans-Serif" font-size="14.00" fill="#000000">samples = 36</text>
<text text-anchor="middle" x="564.0515" y="-8.2" font-family="Helvetica,sans-Serif" font-size="14.00" fill="#000000">value = [31, 5]</text>
</g>
<!-- 9&#45;&gt;10 -->
<g id="edge10" class="edge">
<title>9-&gt;10</title>
<path fill="none" stroke="#000000" d="M584.3176,-94.3048C581.6765,-85.8204 578.8682,-76.7985 576.2101,-68.2596"/>
<polygon fill="#000000" stroke="#000000" points="579.492,-67.0265 573.1779,-58.5186 572.8083,-69.107 579.492,-67.0265"/>
</g>
<!-- 11 -->
<g id="node12" class="node">
<title>11</title>
<polygon fill="none" stroke="#000000" points="746.1545,-58.6014 633.9485,-58.6014 633.9485,.2014 746.1545,.2014 746.1545,-58.6014"/>
<text text-anchor="middle" x="690.0515" y="-41.8" font-family="Helvetica,sans-Serif" font-size="14.00" fill="#000000">gini = 0.493</text>
<text text-anchor="middle" x="690.0515" y="-25" font-family="Helvetica,sans-Serif" font-size="14.00" fill="#000000">samples = 25</text>
<text text-anchor="middle" x="690.0515" y="-8.2" font-family="Helvetica,sans-Serif" font-size="14.00" fill="#000000">value = [11, 14]</text>
</g>
<!-- 9&#45;&gt;11 -->
<g id="edge11" class="edge">
<title>9-&gt;11</title>
<path fill="none" stroke="#000000" d="M630.5199,-94.3048C638.9526,-85.0826 647.966,-75.2255 656.3617,-66.0437"/>
<polygon fill="#000000" stroke="#000000" points="659.0774,-68.2604 663.2426,-58.5186 653.9115,-63.5367 659.0774,-68.2604"/>
</g>
<!-- 13 -->
<g id="node14" class="node">
<title>13</title>
<polygon fill="none" stroke="#000000" points="876.1545,-58.6014 763.9485,-58.6014 763.9485,.2014 876.1545,.2014 876.1545,-58.6014"/>
<text text-anchor="middle" x="820.0515" y="-41.8" font-family="Helvetica,sans-Serif" font-size="14.00" fill="#000000">gini = 0.466</text>
<text text-anchor="middle" x="820.0515" y="-25" font-family="Helvetica,sans-Serif" font-size="14.00" fill="#000000">samples = 108</text>
<text text-anchor="middle" x="820.0515" y="-8.2" font-family="Helvetica,sans-Serif" font-size="14.00" fill="#000000">value = [40, 68]</text>
</g>
<!-- 12&#45;&gt;13 -->
<g id="edge13" class="edge">
<title>12-&gt;13</title>
<path fill="none" stroke="#000000" d="M820.0515,-94.3048C820.0515,-85.9126 820.0515,-76.9946 820.0515,-68.5382"/>
<polygon fill="#000000" stroke="#000000" points="823.5516,-68.5186 820.0515,-58.5186 816.5516,-68.5187 823.5516,-68.5186"/>
</g>
<!-- 14 -->
<g id="node15" class="node">
<title>14</title>
<polygon fill="none" stroke="#000000" points="998.3724,-58.6014 893.7306,-58.6014 893.7306,.2014 998.3724,.2014 998.3724,-58.6014"/>
<text text-anchor="middle" x="946.0515" y="-41.8" font-family="Helvetica,sans-Serif" font-size="14.00" fill="#000000">gini = 0.165</text>
<text text-anchor="middle" x="946.0515" y="-25" font-family="Helvetica,sans-Serif" font-size="14.00" fill="#000000">samples = 55</text>
<text text-anchor="middle" x="946.0515" y="-8.2" font-family="Helvetica,sans-Serif" font-size="14.00" fill="#000000">value = [5, 50]</text>
</g>
<!-- 12&#45;&gt;14 -->
<g id="edge14" class="edge">
<title>12-&gt;14</title>
<path fill="none" stroke="#000000" d="M866.2538,-94.3048C878.0094,-84.7137 890.6068,-74.4359 902.2393,-64.9452"/>
<polygon fill="#000000" stroke="#000000" points="904.5804,-67.5522 910.1162,-58.5186 900.1553,-62.1284 904.5804,-67.5522"/>
</g>
</g>
</svg>